@startuml
allowmixing

boundary interface

control sistema

class usuario {
- id: int
- senha: String 
- cadastroAprovado: String 
- dataCriacao : date
- cpf : String
- nome : String
- sexo : char
- email: String
- data_nascimento : date
- telefone: string
- endereco: Endereco
+ ValidaUsuario(cpf:string,fotos:Img)
+ SalvaDados(nome:string,email:string,senha:string,cpf:string,fotos:Img,endereco:Endereco)
+ VerificaDisponiblidade((cpf:string,email:string)
}

class motorista
{
- CNH : string
}

class passageiro 
{

- meioPagamento: MeioPagamento

}
class endereco
{
- cep: String
- rua: String
- numero: int
- Complemento: String
}

class MeioPagamento
{
- nomeTitular : String 
- bandeiraCartao : String
- numero : String
- validade: date
- cpfTitularCartão: String
- codVerificacao: int
+ ValidaMeioPagamento()
} 
interface --- sistema
passageiro "1" *-up-x "0..*" MeioPagamento
passageiro "1" *-down-x "1" endereco
motorista "1" *-down-x "1" endereco
usuario "1" <|-down- "1" motorista
usuario "1" <|-right- "1" passageiro
sistema -- usuario
sistema -- MeioPagamento

@enduml